<?xml version="1.0" encoding="utf-8"?>
<!-- Generator: Adobe Illustrator 16.0.0, SVG Export Plug-In . SVG Version: 6.00 Build 0)  -->
<!DOCTYPE svg PUBLIC "-//W3C//DTD SVG 1.1//EN" "http://www.w3.org/Graphics/SVG/1.1/DTD/svg11.dtd">
<svg version="1.1" id="Layer_1" xmlns="http://www.w3.org/2000/svg" xmlns:xlink="http://www.w3.org/1999/xlink" x="0px" y="0px"
	 width="73.738px" height="52.365px" viewBox="0 0 73.738 52.365" enable-background="new 0 0 73.738 52.365" xml:space="preserve">
<g>
	<path fill="#999999" d="M73.377,15.134C63.618,5.375,50.652,0,36.87,0h-0.001C23.087,0,10.12,5.375,0.362,15.135L0,15.496l7.959,7.96l0.362-0.362c7.636-7.637,17.775-11.843,28.548-11.843s20.912,4.206,28.549,11.843l0.361,0.362l7.959-7.96L73.377,15.134z"/>
	<path fill="#999999" d="M36.842,20.455c-8.312,0-16.134,3.244-22.025,9.135l-0.361,0.362l7.96,7.958l0.362-0.361c3.771-3.772,8.786-5.85,14.121-5.85c5.321,0,10.324,2.073,14.083,5.833l0.359,0.36l7.926-7.925l-0.361-0.361C53.002,23.705,45.169,20.455,36.842,20.455z"/>
	<path fill="#999999" d="M36.869,40.905c-2.874,0-5.572,1.115-7.598,3.141l-0.362,0.363l7.96,7.957l7.959-7.957l-0.36-0.363C42.441,42.02,39.743,40.905,36.869,40.905z"/>
</g>
</svg>
